HIERARCHY
ROOT Hips
{
  OFFSET 5.72205e-005 65.662 3.42586
  CHANNELS 6 Xposition Yposition Zposition Zrotation Xrotation Yrotation
  JOINT Chest
  {
    OFFSET 0 8.7983 -4.7612
    CHANNELS 3 Zrotation Xrotation Yrotation
    JOINT Chest2
    {
      OFFSET 0 8.0291 0.4195
      CHANNELS 3 Zrotation Xrotation Yrotation
      JOINT Chest3
      {
        OFFSET 0 9.9351 -2.2114
        CHANNELS 3 Zrotation Xrotation Yrotation
        JOINT Neck
        {
          OFFSET 0 22.3885 -0.4656
          CHANNELS 3 Zrotation Xrotation Yrotation
          JOINT Head
          {
            OFFSET -0.0001 12.643 3.4389
            CHANNELS 3 Zrotation Xrotation Yrotation
            End Site
            {
              OFFSET 0.0001 17.6655 0.5274
            }
          }
        }
        JOINT LeftCollar
        {
          OFFSET 2.2603 21.606 7.4023
          CHANNELS 3 Zrotation Xrotation Yrotation
          JOINT LeftShoulder
          {
            OFFSET 13.5163 -1.1332 -5.0146
            CHANNELS 3 Zrotation Xrotation Yrotation
            JOINT LeftElbow
            {
              OFFSET -0.0995 -28.05 -0.2431
              CHANNELS 3 Zrotation Xrotation Yrotation
              JOINT LeftWrist
              {
                OFFSET 0.0679 -23.3996 -0.1402
                CHANNELS 3 Zrotation Xrotation Yrotation
                JOINT LeftFinger1
                {
                  OFFSET 0.7932 -9.069 2.5189
                  CHANNELS 3 Zrotation Xrotation Yrotation
                  JOINT LeftFinger11
                  {
                    OFFSET -0.8272 -3.3923 0.5977
                    CHANNELS 3 Zrotation Xrotation Yrotation
                    JOINT LeftFinger12
                    {
                      OFFSET -0.5649 -2.3158 0.4082
                      CHANNELS 3 Zrotation Xrotation Yrotation
                      End Site
                      {
                        OFFSET -0.4919 -1.6479 0.2673
                      }
                    }
                  }
                }
                JOINT LeftFinger2
                {
                  OFFSET 0.9159 -9.2044 0.2193
                  CHANNELS 3 Zrotation Xrotation Yrotation
                  JOINT LeftFinger21
                  {
                    OFFSET 0.0117 -4.1944 -0.0248
                    CHANNELS 3 Zrotation Xrotation Yrotation
                    JOINT LeftFinger22
                    {
                      OFFSET 0.0071 -2.3249 -0.0142
                      CHANNELS 3 Zrotation Xrotation Yrotation
                      End Site
                      {
                        OFFSET -0.1475 -2.0882 0.0028
                      }
                    }
                  }
                }
                JOINT LeftFinger3
                {
                  OFFSET 0.6113 -8.7231 -2.0637
                  CHANNELS 3 Zrotation Xrotation Yrotation
                  JOINT LeftFinger31
                  {
                    OFFSET -0.1927 -3.8059 -0.2383
                    CHANNELS 3 Zrotation Xrotation Yrotation
                    JOINT LeftFinger32
                    {
                      OFFSET -0.1091 -2.1688 -0.1362
                      CHANNELS 3 Zrotation Xrotation Yrotation
                      End Site
                      {
                        OFFSET -0.2358 -1.9176 -0.0906
                      }
                    }
                  }
                }
                JOINT LeftFinger4
                {
                  OFFSET -0.6151 -8.0947 -3.5641
                  CHANNELS 3 Zrotation Xrotation Yrotation
                  JOINT LeftFinger41
                  {
                    OFFSET -0.4882 -2.341 -0.6462
                    CHANNELS 3 Zrotation Xrotation Yrotation
                    JOINT LeftFinger42
                    {
                      OFFSET -0.3575 -1.7167 -0.4742
                      CHANNELS 3 Zrotation Xrotation Yrotation
                      End Site
                      {
                        OFFSET -0.4187 -1.5237 -0.3496
                      }
                    }
                  }
                }
                JOINT LeftFinger0
                {
                  OFFSET -1.42 -1.8761 1.4223
                  CHANNELS 3 Zrotation Xrotation Yrotation
                  JOINT LeftFinger01
                  {
                    OFFSET -1.1471 -3.4929 2.6334
                    CHANNELS 3 Zrotation Xrotation Yrotation
                    JOINT LeftFinger02
                    {
                      OFFSET -0.823 -2.3 1.6571
                      CHANNELS 3 Zrotation Xrotation Yrotation
                      End Site
                      {
                        OFFSET -0.5822 -1.6914 1.1582
                      }
                    }
                  }
                }
              }
            }
          }
        }
        JOINT RightCollar
        {
          OFFSET -2.2603 21.606 7.4023
          CHANNELS 3 Zrotation Xrotation Yrotation
          JOINT RightShoulder
          {
            OFFSET -13.5187 -1.1334 -5.0155
            CHANNELS 3 Zrotation Xrotation Yrotation
            JOINT RightElbow
            {
              OFFSET 0.0994 -28.0499 -0.2431
              CHANNELS 3 Zrotation Xrotation Yrotation
              JOINT RightWrist
              {
                OFFSET -0.0679 -23.3996 -0.1402
                CHANNELS 3 Zrotation Xrotation Yrotation
                JOINT RightFinger1
                {
                  OFFSET -0.7932 -9.0691 2.5189
                  CHANNELS 3 Zrotation Xrotation Yrotation
                  JOINT RightFinger11
                  {
                    OFFSET 0.8272 -3.3923 0.5977
                    CHANNELS 3 Zrotation Xrotation Yrotation
                    JOINT RightFinger12
                    {
                      OFFSET 0.565 -2.3158 0.4082
                      CHANNELS 3 Zrotation Xrotation Yrotation
                      End Site
                      {
                        OFFSET 0.4919 -1.6479 0.2673
                      }
                    }
                  }
                }
                JOINT RightFinger2
                {
                  OFFSET -0.916 -9.2044 0.2193
                  CHANNELS 3 Zrotation Xrotation Yrotation
                  JOINT RightFinger21
                  {
                    OFFSET -0.0117 -4.1944 -0.0248
                    CHANNELS 3 Zrotation Xrotation Yrotation
                    JOINT RightFinger22
                    {
                      OFFSET -0.0071 -2.3249 -0.0142
                      CHANNELS 3 Zrotation Xrotation Yrotation
                      End Site
                      {
                        OFFSET 0.1475 -2.0882 0.0028
                      }
                    }
                  }
                }
                JOINT RightFinger3
                {
                  OFFSET -0.6113 -8.7231 -2.0637
                  CHANNELS 3 Zrotation Xrotation Yrotation
                  JOINT RightFinger31
                  {
                    OFFSET 0.1927 -3.8059 -0.2383
                    CHANNELS 3 Zrotation Xrotation Yrotation
                    JOINT RightFinger32
                    {
                      OFFSET 0.1091 -2.1688 -0.1362
                      CHANNELS 3 Zrotation Xrotation Yrotation
                      End Site
                      {
                        OFFSET 0.2358 -1.9176 -0.0906
                      }
                    }
                  }
                }
                JOINT RightFinger4
                {
                  OFFSET 0.6151 -8.0947 -3.564
                  CHANNELS 3 Zrotation Xrotation Yrotation
                  JOINT RightFinger41
                  {
                    OFFSET 0.4882 -2.341 -0.6462
                    CHANNELS 3 Zrotation Xrotation Yrotation
                    JOINT RightFinger42
                    {
                      OFFSET 0.3574 -1.7166 -0.4742
                      CHANNELS 3 Zrotation Xrotation Yrotation
                      End Site
                      {
                        OFFSET 0.4187 -1.5237 -0.3496
                      }
                    }
                  }
                }
                JOINT RightFinger0
                {
                  OFFSET 1.4199 -1.8761 1.4221
                  CHANNELS 3 Zrotation Xrotation Yrotation
                  JOINT RightFinger01
                  {
                    OFFSET 1.1472 -3.4929 2.6336
                    CHANNELS 3 Zrotation Xrotation Yrotation
                    JOINT RightFinger02
                    {
                      OFFSET 0.8229 -2.3 1.6571
                      CHANNELS 3 Zrotation Xrotation Yrotation
                      End Site
                      {
                        OFFSET 0.5822 -1.6914 1.1582
                      }
                    }
                  }
                }
              }
            }
          }
        }
      }
    }
  }
  JOINT RightHip
  {
    OFFSET -9.412 3.9771 -0.7758
    CHANNELS 3 Zrotation Xrotation Yrotation
    JOINT RightKnee
    {
      OFFSET -0.7531 -40.938 0
      CHANNELS 3 Zrotation Xrotation Yrotation
      JOINT RightAnkle
      {
        OFFSET 0 -40.1986 0
        CHANNELS 3 Zrotation Xrotation Yrotation
        JOINT RightToe
        {
          OFFSET 0 -4.4182 9.239
          CHANNELS 3 Zrotation Xrotation Yrotation
          End Site
          {
            OFFSET 0 0 6.1981
          }
        }
      }
    }
  }
  JOINT LeftHip
  {
    OFFSET 9.4119 3.9773 -0.7758
    CHANNELS 3 Zrotation Xrotation Yrotation
    JOINT LeftKnee
    {
      OFFSET 0.7532 -40.9383 0
      CHANNELS 3 Zrotation Xrotation Yrotation
      JOINT LeftAnkle
      {
        OFFSET 0 -40.1986 0
        CHANNELS 3 Zrotation Xrotation Yrotation
        JOINT LeftToe
        {
          OFFSET 0 -4.4182 9.239
          CHANNELS 3 Zrotation Xrotation Yrotation
          End Site
          {
            OFFSET 0 0 6.1981
          }
        }
      }
    }
  }
}
MOTION
Frames:	4
Frame Time:	0.0333333
39.8467 34.9519 20.1428 179.994 51.0054 0.0125393 -0.172885 -1.98781 0.134701 -0.341398 -3.97601 0.263632 -0.341399 -3.97602 0.263633 1.71215e-007 15.9935 -1.85608e-007 3.84835e-008 21.9179 1.68953e-007 6.16073 1.44712 5.38297 99.2983 29.1487 -53.0613 -39.399 -32.4019 -75.9567 1.74912 8.04732 1.64867 -1.41245e-030 -1.27222e-014 -6.36111e-015 -3.18055e-015 -1.59028e-014 -9.54166e-015 6.36111e-015 -1.27222e-014 -9.54166e-015 -1.41245e-030 -1.27222e-014 -6.36111e-015 -0.0128385 0.00233361 9.0217e-005 7.06225e-031 3.18055e-015 -1.27222e-014 -1.41245e-030 -1.27222e-014 -6.36111e-015 -0.0160406 0.00298786 0.000854539 0 0 -9.54166e-015 -1.41245e-030 -1.27222e-014 -6.36111e-015 -0.0125864 0.00312443 0.00282469 -1.76556e-031 -3.18055e-015 -3.18055e-015 -1.41245e-030 -1.27222e-014 -6.36111e-015 -3.18055e-015 -1.59028e-014 -9.54166e-015 6.36111e-015 -1.27222e-014 -9.54166e-015 -6.95443 1.87509 -10.842 -99.9386 26.366 52.9835 39.0802 -34.1267 75.9477 -1.71581 8.06938 -1.5516 -4.99671e-006 -4.3549e-006 7.93031e-006 2.19844e-006 5.57862e-006 1.91006e-006 -2.19844e-006 -5.57862e-006 -1.91006e-006 -4.99671e-006 -4.3549e-006 7.93031e-006 0.0129504 0.00232329 -8.37154e-005 7.30825e-006 -6.86024e-006 -3.76052e-006 -4.99671e-006 -4.3549e-006 7.93031e-006 0.0163231 0.00303588 -0.000870426 -1.49168e-005 -1.0413e-005 1.33961e-005 -4.99671e-006 -4.3549e-006 7.93031e-006 0.0146459 0.0036911 -0.00327829 2.19878e-006 -1.08134e-006 1.9101e-006 -4.99671e-006 -4.3549e-006 7.93031e-006 2.19844e-006 5.57862e-006 1.91006e-006 -2.19844e-006 -5.57862e-006 -1.91006e-006 -46.5452 32.2327 -29.0039 -73.1408 39.229 73.6528 13.0899 11.4568 16.8187 -4.14928e-006 -1.80041e-006 1.72045e-006 45.2892 32.4873 28.4144 73.7128 39.5129 -74.062 -14.7664 10.9996 -15.5454 -1.5924e-006 7.4955e-007 1.38309e-007 
39.8464 34.9522 20.1426 179.994 51.0054 0.0125394 -0.172729 -1.95771 0.134979 -0.341138 -3.91577 0.264278 -0.341138 -3.91578 0.264278 -5.0216e-006 15.9934 3.47023e-006 -3.02722e-007 21.3411 3.30604e-007 6.16072 1.44708 5.38298 99.2969 29.1357 -53.0597 -39.3991 -32.4019 -75.9567 1.74909 8.04733 1.6487 4.58553e-006 -4.7279e-006 3.73001e-006 -9.48965e-006 5.52297e-006 8.0572e-006 3.18055e-015 3.18055e-015 -6.36111e-015 4.58553e-006 -4.7279e-006 3.73001e-006 -0.0128063 0.00233137 8.52211e-005 3.18055e-015 0 3.18055e-015 4.58553e-006 -4.7279e-006 3.73001e-006 -0.0160567 0.00301202 0.000852481 -0 -3.18055e-015 -0 4.58553e-006 -4.7279e-006 3.73001e-006 -0.0126248 0.00314392 0.00284344 -3.18055e-015 6.36111e-015 -0 4.58553e-006 -4.7279e-006 3.73001e-006 -9.48965e-006 5.52297e-006 8.0572e-006 3.18055e-015 3.18055e-015 -6.36111e-015 -6.95444 1.87504 -10.842 -99.9386 26.366 52.9835 39.0802 -34.1268 75.9478 -1.7158 8.0694 -1.55161 9.54166e-015 0 3.18055e-015 -6.36111e-015 3.18055e-015 -0 3.18055e-015 3.18055e-015 -0 9.54166e-015 0 3.18055e-015 0.0129775 0.00231288 -8.90209e-005 9.54166e-015 1.59028e-014 -6.36111e-015 9.54166e-015 0 3.18055e-015 0.0162974 0.00301932 -0.00087532 -6.36111e-015 0 -6.36111e-015 9.54166e-015 0 3.18055e-015 0.0145245 0.00365513 -0.0032458 9.54166e-015 0 -0 9.54166e-015 0 3.18055e-015 -6.36111e-015 3.18055e-015 -0 3.18055e-015 3.18055e-015 -0 -46.2218 32.3351 -28.8482 -73.1434 39.2294 73.66 13.4619 11.4017 16.4529 -1.23264e-006 2.61813e-007 1.67688e-006 45.0602 32.5624 28.2869 73.7142 39.5131 -74.0668 -15.03 10.9495 -15.2855 1.59225e-006 1.01339e-007 -1.38437e-007 
39.8461 34.9524 20.1423 179.994 51.0054 0.0125394 -0.172571 -1.92756 0.135255 -0.340874 -3.85552 0.264921 -0.340875 -3.85553 0.264921 -2.01764e-005 15.9933 1.32609e-005 4.10951e-008 20.7643 1.68198e-007 6.16071 1.44694 5.38301 99.2954 29.1227 -53.058 -39.399 -32.4019 -75.9567 1.74912 8.04733 1.64869 -3.18055e-015 9.54166e-015 -3.18055e-015 -1.19769e-005 1.34324e-005 3.99781e-006 1.19769e-005 -1.34324e-005 -3.9978e-006 -3.18055e-015 9.54166e-015 -3.18055e-015 -0.0128162 0.0023219 8.69808e-005 -2.11187e-006 1.24105e-005 3.00734e-007 -3.18055e-015 9.54166e-015 -3.18055e-015 -0.0160624 0.00301085 0.000860925 1.37749e-006 -9.22372e-006 -2.79146e-006 -3.18055e-015 9.54166e-015 -3.18055e-015 -0.0125776 0.00313969 0.00281576 3.18055e-015 3.18055e-015 1.27222e-014 -3.18055e-015 9.54166e-015 -3.18055e-015 -1.19769e-005 1.34324e-005 3.99781e-006 1.19769e-005 -1.34324e-005 -3.9978e-006 -6.95445 1.87491 -10.842 -99.9386 26.366 52.9835 39.0802 -34.1268 75.9478 -1.71581 8.06938 -1.55161 -9.6199e-006 -6.28514e-007 -4.32378e-007 -1.76556e-031 3.18055e-015 3.18055e-015 7.4209e-006 -6.97875e-006 -1.48953e-006 -9.6199e-006 -6.28514e-007 -4.32378e-007 0.0129422 0.00231007 -8.74061e-005 3.18055e-015 3.18055e-015 -9.54166e-015 -9.6199e-006 -6.28514e-007 -4.32378e-007 0.016375 0.00304207 -0.000873809 9.73078e-006 8.38924e-006 -9.94291e-006 -9.6199e-006 -6.28514e-007 -4.32378e-007 0.0145663 0.00368015 -0.00325829 6.36111e-015 9.54166e-015 3.18055e-015 -9.6199e-006 -6.28514e-007 -4.32378e-007 -1.76556e-031 3.18055e-015 3.18055e-015 7.4209e-006 -6.97875e-006 -1.48953e-006 -45.8983 32.4382 -28.693 -73.1461 39.2298 73.6673 13.8335 11.3443 16.0875 -2.2337e-007 -2.51581e-006 4.52851e-006 44.8312 32.6379 28.1596 73.7153 39.5132 -74.0715 -15.2933 10.8984 -15.0259 -6.11043e-007 9.26815e-007 2.98237e-006 
39.8458 34.9527 20.142 179.994 51.0054 0.0125393 -0.172419 -1.89751 0.135536 -0.340625 -3.79544 0.265574 -0.340624 -3.79544 0.265573 9.0101e-006 15.9935 -6.16349e-006 -3.06927e-007 20.1876 -2.13567e-007 6.16074 1.44722 5.38295 99.294 29.1097 -53.0564 -39.399 -32.4019 -75.9567 1.74912 8.0473 1.64867 5.29669e-031 -9.54166e-015 3.18055e-015 -6.98981e-006 1.19539e-005 6.16825e-006 -2.29294e-006 3.03508e-006 -1.87714e-006 5.29669e-031 -9.54166e-015 3.18055e-015 -0.0128199 0.00234314 8.80997e-005 1.75606e-007 2.2618e-006 2.16662e-006 5.29669e-031 -9.54166e-015 3.18055e-015 -0.0160502 0.0029954 0.000860415 9.54166e-015 -3.18055e-015 3.18055e-015 5.29669e-031 -9.54166e-015 3.18055e-015 -0.0125667 0.00312496 0.00282964 1.14661e-006 1.21642e-006 9.38588e-007 5.29669e-031 -9.54166e-015 3.18055e-015 -6.98981e-006 1.19539e-005 6.16825e-006 -2.29294e-006 3.03508e-006 -1.87714e-006 -6.95443 1.87518 -10.842 -99.9386 26.366 52.9836 39.0802 -34.1267 75.9477 -1.71585 8.06937 -1.55161 -3.18055e-015 -2.54444e-014 -0 3.18055e-015 -2.54444e-014 9.54166e-015 -4.76702e-030 -2.8625e-014 -9.54166e-015 -3.18055e-015 -2.54444e-014 -0 0.0129247 0.00230955 -8.59851e-005 0 3.18055e-015 -0 -3.18055e-015 -2.54444e-014 -0 0.0163751 0.00303971 -0.000876495 -3.18055e-015 1.59028e-014 1.27222e-014 -3.18055e-015 -2.54444e-014 -0 0.0145352 0.00366243 -0.00325184 3.18055e-015 0 -0 -3.18055e-015 -2.54444e-014 -0 3.18055e-015 -2.54444e-014 9.54166e-015 -4.76702e-030 -2.8625e-014 -9.54166e-015 -45.5749 32.5421 -28.5384 -73.1486 39.2301 73.6745 14.2047 11.2845 15.7227 -2.68487e-006 -4.87406e-006 7.8834e-006 44.6022 32.7139 28.0326 73.7165 39.5134 -74.0761 -15.5563 10.846 -14.7666 -3.18055e-015 0 -0 
